<svg width="427" height="329" viewBox="0 0 427 329" fill="none" xmlns="http://www.w3.org/2000/svg">
<path d="M136.697 40.9123C140.882 26.09 157.075 17.8055 172.866 22.4084L398.409 88.1547C414.199 92.7574 423.606 108.504 419.42 123.327L372.894 288.084C368.708 302.907 352.515 311.192 336.726 306.589L111.182 240.843C95.3916 236.24 85.9847 220.493 90.1705 205.67L136.697 40.9123Z" fill="#1B374C"/>
<path d="M169.582 51.2651C172.872 52.2242 176.246 50.4979 177.118 47.4093C177.99 44.3207 176.03 41.0394 172.74 40.0803C169.45 39.1213 166.076 40.8476 165.204 43.9361C164.332 47.0247 166.292 50.306 169.582 51.2651Z" fill="white"/>
<path d="M190.219 57.2612C193.509 58.2203 196.883 56.494 197.755 53.4054C198.627 50.3168 196.667 47.0355 193.377 46.0764C190.087 45.1173 186.713 46.8436 185.841 49.9322C184.969 53.0208 186.929 56.3021 190.219 57.2612Z" fill="white"/>
<path d="M210.853 63.2612C214.143 64.2203 217.517 62.494 218.39 59.4054C219.262 56.3168 217.302 53.0355 214.012 52.0764C210.722 51.1173 207.348 52.8436 206.476 55.9322C205.603 59.0208 207.563 62.3021 210.853 63.2612Z" fill="white"/>
<path d="M315.585 224.627L135.75 172.309C132.25 171.29 128.658 173.128 127.729 176.414C126.799 179.699 128.883 183.188 132.383 184.206L312.218 236.525C315.718 237.543 319.309 235.705 320.239 232.42C321.169 229.134 319.085 225.645 315.585 224.627Z" fill="white"/>
<path d="M335.589 192.474L147.003 137.61C142.768 136.378 138.533 138.209 137.546 141.699L137.545 141.7C136.558 145.191 139.191 149.02 143.426 150.252L332.012 205.116C336.248 206.348 340.482 204.518 341.47 201.027L341.47 201.026C342.458 197.535 339.825 193.707 335.589 192.474Z" fill="white"/>
<path d="M318.046 148.597L154.951 101.146C151.923 100.265 148.715 102.214 147.786 105.5C146.856 108.786 148.557 112.163 151.584 113.044L314.679 160.496C317.707 161.376 320.915 159.427 321.845 156.141C322.774 152.856 321.073 149.478 318.046 148.597Z" fill="white"/>
<path d="M0 82.8067C0 67.3697 13.3093 54.8555 29.728 54.8555H264.245C280.663 54.8555 293.972 67.3697 293.972 82.8067V254.398C293.972 269.836 280.663 282.35 264.245 282.35H29.728C13.3093 282.35 0 269.836 0 254.398V82.8067Z" fill="#0EBDB8"/>
<path d="M34.2695 83.5842C37.69 83.5842 40.4629 80.977 40.4629 77.7609C40.4629 74.5447 37.69 71.9375 34.2695 71.9375C30.849 71.9375 28.0762 74.5447 28.0762 77.7609C28.0762 80.977 30.849 83.5842 34.2695 83.5842Z" fill="white"/>
<path d="M55.7403 83.5842C59.1608 83.5842 61.9336 80.977 61.9336 77.7609C61.9336 74.5447 59.1608 71.9375 55.7403 71.9375C52.3198 71.9375 49.5469 74.5447 49.5469 77.7609C49.5469 80.977 52.3198 83.5842 55.7403 83.5842Z" fill="white"/>
<path d="M77.209 83.5842C80.6295 83.5842 83.4024 80.977 83.4024 77.7609C83.4024 74.5447 80.6295 71.9375 77.209 71.9375C73.7885 71.9375 71.0156 74.5447 71.0156 77.7609C71.0156 80.977 73.7885 83.5842 77.209 83.5842Z" fill="white"/>
<path d="M222.131 209.367H34.6822C31.0338 209.367 28.0762 212.148 28.0762 215.579C28.0762 219.009 31.0338 221.79 34.6822 221.79H222.131C225.779 221.79 228.737 219.009 228.737 215.579C228.737 212.148 225.779 209.367 222.131 209.367Z" fill="white"/>
<path d="M207.681 172.871H35.0949C31.2186 172.871 28.0762 175.826 28.0762 179.471V179.471C28.0762 183.116 31.2186 186.071 35.0949 186.071H207.681C211.557 186.071 214.699 183.116 214.699 179.471V179.471C214.699 175.826 211.557 172.871 207.681 172.871Z" fill="white"/>
<path d="M231.214 135.605H34.6822C31.0338 135.605 28.0762 138.386 28.0762 141.817C28.0762 145.247 31.0338 148.028 34.6822 148.028H231.214C234.863 148.028 237.82 145.247 237.82 141.817C237.82 138.386 234.863 135.605 231.214 135.605Z" fill="white"/>
</svg>
